<?xml version="1.0" standalone="no"?>
<!DOCTYPE svg PUBLIC "-//W3C//DTD SVG 20010904//EN"
 "http://www.w3.org/TR/2001/REC-SVG-20010904/DTD/svg10.dtd">
<svg version="1.0" xmlns="http://www.w3.org/2000/svg"
 width="360.000000pt" height="360.000000pt" viewBox="0 0 360.000000 360.000000"
 preserveAspectRatio="xMidYMid meet">
<metadata>
Created by potrace 1.14, written by Peter Selinger 2001-2017
</metadata>
<g transform="translate(0.000000,360.000000) scale(0.100000,-0.100000)"
fill="#000000" stroke="none">
<path d="M1580 2960 c-261 -13 -519 -43 -810 -96 -249 -45 -277 -52 -284 -77
-10 -36 -7 -297 4 -408 14 -133 52 -323 85 -418 14 -41 25 -77 25 -80 0 -4
-54 -24 -120 -46 -66 -22 -120 -43 -120 -48 0 -4 369 -7 820 -7 516 1 820 4
820 10 0 6 9 10 20 10 74 0 91 230 23 310 -32 39 -58 38 -83 -2 -11 -18 -20
-28 -20 -21 0 7 11 24 24 40 21 24 27 26 52 18 81 -28 111 -237 49 -329 l-24
-36 626 0 c344 1 622 4 617 9 -5 5 -61 25 -124 46 -63 21 -117 39 -119 41 -2
2 8 45 23 96 62 220 94 447 97 683 1 80 0 148 -3 150 -8 8 -368 72 -558 99
-337 49 -726 70 -1020 56z m565 -135 c227 -19 357 -35 593 -76 238 -41 259
-46 266 -72 7 -27 0 -182 -15 -332 -10 -105 -46 -309 -48 -272 -1 9 -5 17 -9
17 -10 0 -11 -10 -12 -110 0 -41 -4 -88 -9 -105 -8 -24 -9 -16 -10 45 -1 51
-8 89 -21 119 -11 24 -20 44 -20 46 0 1 18 5 41 9 36 6 40 9 36 29 -3 12 -9
46 -13 75 -5 37 -15 61 -34 82 -18 19 -24 33 -18 42 10 15 1 62 -18 101 -14
26 -18 27 -88 27 -66 0 -76 3 -93 24 -30 39 -125 102 -187 125 -33 12 -93 26
-135 32 -42 5 -77 14 -79 19 -6 16 -342 12 -477 -6 -262 -34 -368 -71 -612
-215 -62 -37 -133 -72 -158 -78 -53 -13 -200 -84 -229 -109 -25 -23 -73 -120
-81 -166 -22 -114 -64 122 -72 399 -5 173 -3 212 8 221 39 31 581 115 829 130
63 3 117 8 119 10 11 10 377 2 546 -11z m82 -181 c-3 -3 -12 -4 -19 -1 -8 3
-5 6 6 6 11 1 17 -2 13 -5z m-38 -25 c29 0 32 -2 16 -9 -11 -5 -108 -7 -215
-5 -107 2 -179 1 -160 -3 33 -8 30 -9 -40 -21 -146 -25 -306 -63 -425 -101
-65 -22 -121 -37 -124 -35 -2 3 52 31 120 64 115 55 195 80 309 97 74 11 330
22 409 18 41 -2 90 -4 110 -5z m262 -23 c86 -26 131 -57 251 -172 66 -62 132
-121 147 -130 39 -23 49 -44 51 -105 3 -89 3 -89 -29 -89 -17 0 -33 5 -36 10
-20 32 -75 -7 -102 -72 -8 -21 -19 -38 -24 -38 -5 0 -3 12 4 28 24 46 46 125
51 179 4 44 0 58 -21 90 -14 21 -30 51 -36 68 -39 116 -173 208 -321 222 -105
9 -139 -6 -239 -109 -73 -75 -90 -88 -102 -78 -8 7 -15 18 -15 25 0 21 163
170 200 182 42 15 157 9 221 -11z m-52 -43 c0 -11 -3 -13 -6 -5 -3 7 -25 12
-58 12 -46 0 -60 -5 -102 -36 -77 -59 -79 -60 -58 -35 11 13 40 37 64 53 36
22 56 28 103 28 49 0 58 -3 57 -17z m111 -13 c42 -23 36 -26 -14 -5 -20 9 -41
13 -46 10 -6 -4 -10 -1 -10 4 0 17 31 12 70 -9z m-442 -52 c-74 -86 -143 -122
-217 -114 -29 4 -148 6 -264 6 -115 0 -208 3 -205 5 3 3 119 10 258 15 239 10
255 12 302 35 56 28 155 92 164 106 3 5 8 9 11 9 3 0 -19 -28 -49 -62z m339
20 c-3 -8 -6 -5 -6 6 -1 11 2 17 5 13 3 -3 4 -12 1 -19z m198 -22 c11 -8 16
-15 10 -15 -5 0 -23 11 -40 25 -31 26 -6 18 30 -10z m-188 -18 c-3 -8 -6 -5
-6 6 -1 11 2 17 5 13 3 -3 4 -12 1 -19z m77 -88 c4 -34 1 -28 -14 25 -11 39
-19 75 -19 80 1 21 27 -63 33 -105z m-378 25 c-21 -25 -34 -49 -31 -55 3 -5 1
-10 -4 -10 -21 0 -11 27 25 68 48 56 56 54 10 -3z m311 23 c-3 -8 -6 -5 -6 6
-1 11 2 17 5 13 3 -3 4 -12 1 -19z m-95 -23 c14 -31 -3 -55 -41 -55 -50 0 -71
-11 -71 -37 0 -20 -4 -24 -22 -21 -32 4 -37 38 -6 38 20 1 21 2 6 11 -20 11
-23 41 -8 70 9 15 22 19 71 19 54 0 61 -2 71 -25z m-294 -7 c18 -18 15 -24
-25 -40 -96 -40 -92 -36 -48 -39 22 -1 74 -1 116 -1 72 1 77 0 87 -23 17 -36
51 -33 65 6 l12 31 114 -5 c62 -3 119 -11 125 -17 7 -7 12 -69 14 -165 l3
-153 -63 -6 c-126 -12 -131 -14 -35 -10 75 2 97 0 97 -10 0 -12 -152 -26 -292
-26 -65 0 -62 20 5 22 l52 2 -52 3 -53 4 0 137 c0 197 10 182 -126 182 -89 0
-127 -4 -171 -20 -32 -11 -71 -20 -88 -19 -29 0 -28 1 13 17 23 9 42 19 42 23
0 11 -52 18 -95 13 -66 -8 -20 11 101 40 61 15 124 36 140 46 35 22 46 24 62
8z m740 0 c14 -14 16 -42 2 -33 -14 9 -32 45 -22 45 4 0 13 -5 20 -12z m-341
-30 c-3 -7 -5 -2 -5 12 0 14 2 19 5 13 2 -7 2 -19 0 -25z m-1097 -15 c-134 -8
-258 -23 -298 -37 -24 -9 -40 -11 -37 -6 9 15 -6 12 -24 -4 -10 -9 -22 -12
-30 -7 -13 8 8 18 104 50 17 5 100 9 185 8 85 0 130 -2 100 -4z m1394 -58 c25
-39 21 -134 -10 -213 -15 -37 -29 -70 -33 -73 -3 -4 -45 -10 -93 -13 l-88 -7
0 146 c0 82 -5 155 -10 166 -10 18 -6 19 103 19 111 0 115 -1 131 -25z m-1880
-44 c-10 -10 -23 -16 -28 -13 -5 3 2 11 15 18 33 18 36 17 13 -5z m675 -9
c-44 -28 -47 -29 -247 -36 -112 -4 -244 -3 -295 1 -76 7 -42 9 193 13 266 5
288 6 330 27 63 30 72 28 19 -5z m252 -40 c-24 -47 -36 -57 -81 -70 -19 -6
-28 -11 -20 -11 9 -1 42 8 75 20 39 14 61 17 63 10 2 -6 25 -11 52 -11 l47 0
-18 -38 c-11 -21 -24 -61 -31 -89 l-13 -52 -55 -7 c-30 -3 -62 -11 -70 -16
-10 -6 -4 -7 20 -4 19 3 53 8 75 12 l40 6 3 -76 3 -76 -204 0 c-112 0 -228 4
-257 10 -29 5 -201 12 -383 15 -181 2 -332 6 -334 9 -3 2 0 13 6 24 6 12 11
30 11 42 0 17 3 19 17 12 39 -21 162 -40 233 -37 63 2 67 1 25 -5 -32 -4 21
-7 145 -8 160 -2 226 3 365 23 94 13 182 29 195 35 23 9 22 10 -7 4 -36 -6
-39 -1 -18 36 31 55 23 57 -223 43 -122 -6 -160 -23 -53 -23 51 0 61 -3 75
-25 23 -35 20 -42 -23 -49 -22 -3 -46 -9 -54 -12 -11 -4 -22 7 -38 38 -12 24
-27 46 -33 50 -6 4 -102 8 -213 8 l-202 0 -6 -44 c-4 -25 -4 -50 0 -56 5 -7
-2 -9 -22 -4 -38 9 -56 25 -44 37 7 7 7 16 0 29 -8 15 -5 20 18 29 l28 12 -25
7 c-14 5 -49 8 -78 9 l-54 1 7 43 c8 45 23 90 24 70 1 -15 31 -18 31 -3 0 6 9
5 24 -2 38 -16 56 -4 57 39 l2 38 6 -35 c6 -33 10 -36 76 -59 87 -31 172 -31
310 -2 82 17 111 28 160 62 39 26 52 32 37 17 -12 -14 -19 -28 -15 -32 5 -4 2
-6 -6 -4 -7 2 -16 -2 -18 -9 -3 -9 23 -12 109 -11 73 0 105 4 91 9 -31 11 -29
35 6 70 24 24 38 29 76 29 31 0 47 -5 51 -15 8 -21 21 -19 29 5 3 11 11 20 16
20 5 0 1 -17 -10 -38z m69 30 c0 -4 -16 -23 -35 -42 -39 -38 -45 -31 -15 18
18 29 50 44 50 24z m220 -28 c17 -15 37 -39 45 -55 24 -46 17 -47 -11 -1 -26
43 -67 72 -104 72 -30 0 -77 -27 -90 -50 -6 -11 -16 -20 -22 -20 -16 0 42 60
67 70 40 17 83 11 115 -16z m-1276 -6 c-6 -21 -5 -22 11 -8 17 14 18 13 11
-20 -4 -21 -3 -31 3 -25 5 6 11 21 14 35 3 14 4 7 3 -16 -1 -34 -4 -40 -18
-36 -10 2 -18 10 -18 17 0 8 -8 11 -20 8 -24 -6 -25 0 -3 38 21 35 27 37 17 7z
m786 3 c0 -5 -6 -11 -12 -14 -10 -3 -10 -9 0 -26 11 -19 10 -21 -13 -21 -21 0
-25 5 -25 29 0 16 6 32 13 34 20 9 37 8 37 -2z m-74 -17 c-4 -9 -2 -22 4 -29
8 -10 3 -14 -20 -17 -16 -3 -30 -1 -30 4 0 4 10 8 23 9 12 0 16 3 10 6 -9 3
-10 10 -3 24 13 23 25 25 16 3z m634 -4 c0 -5 -2 -10 -4 -10 -3 0 -8 5 -11 10
-3 6 -1 10 4 10 6 0 11 -4 11 -10z m718 -140 c39 -78 22 -224 -28 -238 -11 -3
-11 -1 2 9 55 44 49 221 -10 268 -13 10 -13 12 -2 9 8 -2 25 -24 38 -48z
m-799 0 c0 -10 -3 -8 -9 5 -12 27 -12 43 0 25 5 -8 9 -22 9 -30z m-107 -17 c6
-7 14 -10 19 -7 5 3 9 -2 9 -11 0 -12 -6 -15 -20 -10 -16 5 -20 2 -20 -15 0
-17 4 -20 23 -15 12 4 31 13 43 20 19 12 21 12 17 -9 -3 -13 -10 -23 -16 -24
-40 -3 -77 -22 -45 -22 9 0 21 -7 28 -15 9 -11 8 -19 -5 -37 -16 -22 -16 -22
-11 -2 8 28 -21 55 -35 33 -5 -9 -8 19 -8 76 1 50 4 81 6 70 3 -11 10 -26 15
-32z m42 16 c-8 -14 -24 -10 -24 6 0 9 6 12 15 9 8 -4 12 -10 9 -15z m73 -101
c-2 -18 -4 -6 -4 27 0 33 2 48 4 33 2 -15 2 -42 0 -60z m720 52 c-3 -12 1 -23
10 -29 21 -11 8 -31 -20 -31 l-22 0 22 -18 c17 -12 20 -21 13 -32 -9 -13 -10
-13 -10 0 0 9 -9 23 -20 33 -12 10 -20 29 -20 48 0 26 3 29 20 24 14 -5 20 -2
20 9 0 9 3 16 6 16 4 0 4 -9 1 -20z m-99 -17 c-3 -15 -17 -18 -91 -21 -71 -2
-87 0 -87 12 0 15 29 20 133 24 41 2 48 -1 45 -15z m25 -60 c-3 -43 -6 -79 -7
-79 0 -1 -133 -4 -293 -7 l-293 -5 0 32 c0 47 12 106 21 106 4 0 9 -17 11 -37
l3 -38 230 -2 c260 -3 269 -1 300 64 11 23 23 42 27 43 3 0 4 -35 1 -77z m144
35 c-3 -8 -6 -5 -6 6 -1 11 2 17 5 13 3 -3 4 -12 1 -19z m-356 -20 c0 -10 2
-10 6 0 3 8 30 12 86 12 80 0 81 0 62 -19 -18 -17 -42 -19 -257 -24 -227 -4
-238 -4 -238 14 0 16 10 19 93 22 227 8 247 7 248 -5z m-1643 -125 c-16 -2
-40 -2 -55 0 -16 2 -3 4 27 4 30 0 43 -2 28 -4z"/>
<path d="M1723 2593 c9 -2 23 -2 30 0 6 3 -1 5 -18 5 -16 0 -22 -2 -12 -5z"/>
<path d="M1684 2195 c-10 -25 22 -53 44 -39 9 6 17 20 17 30 0 25 -52 33 -61
9z"/>
<path d="M1375 1956 c-16 -12 -17 -16 -6 -30 17 -20 55 -21 70 -2 9 11 8 18
-4 30 -20 20 -35 20 -60 2z m25 -18 c0 -16 -3 -19 -11 -11 -6 6 -8 16 -5 22
11 17 16 13 16 -11z"/>
<path d="M2756 1963 c-12 -12 -5 -23 14 -23 11 0 20 4 20 9 0 11 -26 22 -34
14z"/>
<path d="M1637 1746 c-3 -7 -26 -23 -51 -36 -86 -41 -126 -112 -126 -221 0
-117 70 -189 185 -189 154 0 263 126 240 278 -13 89 -59 140 -147 167 -64 19
-94 19 -101 1z m102 -142 c15 -20 21 -41 21 -81 0 -64 -18 -105 -55 -121 -39
-18 -54 -15 -86 17 -24 25 -29 37 -29 81 0 55 19 103 47 119 34 20 80 13 102
-15z"/>
<path d="M533 1729 c-37 -11 -50 -32 -103 -171 -31 -84 -53 -110 -80 -93 -14
8 -13 -28 2 -60 8 -19 8 -31 0 -50 -11 -25 -10 -27 30 -45 23 -10 45 -17 49
-14 4 2 13 20 19 39 11 35 12 35 71 35 60 0 60 0 76 -37 8 -21 16 -39 17 -40
4 -4 100 28 108 36 12 11 -126 406 -142 408 -8 1 -30 -3 -47 -8z m27 -261 c0
-5 -14 -8 -31 -8 -33 0 -33 -1 -6 78 l12 34 12 -49 c7 -26 13 -51 13 -55z"/>
<path d="M828 1722 c-57 -14 -58 -15 -58 -51 -1 -20 -5 -81 -9 -135 -9 -118 0
-163 40 -202 24 -23 40 -29 93 -32 128 -8 183 64 200 263 4 39 9 92 12 119 l6
49 -48 -8 c-82 -12 -81 -10 -89 -142 -8 -140 -22 -183 -60 -183 -42 0 -47 28
-31 185 8 77 11 143 8 146 -4 3 -33 -1 -64 -9z"/>
<path d="M1350 1729 c-63 -4 -131 -7 -151 -8 -33 -1 -38 -5 -53 -41 -9 -22
-16 -45 -16 -50 0 -6 23 -10 51 -10 l52 0 -6 -52 c-13 -109 -20 -278 -11 -278
16 0 99 34 105 43 4 5 9 50 13 100 4 51 9 113 12 139 l6 47 46 3 c46 3 47 4
65 52 10 27 14 52 10 55 -4 3 -60 3 -123 0z"/>
<path d="M2035 1731 c-84 -13 -94 -19 -105 -59 -14 -50 -13 -52 11 -52 24 0
24 22 2 -252 -7 -89 -5 -91 71 -58 44 18 46 21 46 59 0 60 7 71 49 71 50 0
121 38 148 79 26 38 31 112 12 155 -23 49 -124 74 -234 57z m115 -106 c25 -30
-17 -105 -59 -105 -13 0 -15 10 -13 60 4 58 5 60 32 60 15 0 33 -7 40 -15z"/>
<path d="M2762 1729 c-36 -11 -39 -16 -98 -169 -28 -76 -35 -85 -63 -93 -34
-8 -37 -19 -17 -56 10 -18 11 -31 3 -52 -13 -33 -12 -34 37 -54 l37 -16 17 41
17 40 61 0 61 0 13 -40 c7 -22 14 -40 15 -40 8 0 102 34 107 39 7 6 -109 371
-126 400 -8 13 -19 13 -64 0z m22 -231 c7 -37 6 -38 -25 -38 -22 0 -30 4 -26
14 3 8 11 33 18 56 14 46 20 40 33 -32z"/>
<path d="M2369 1718 l-35 -9 -12 -176 c-7 -97 -17 -184 -22 -194 -23 -42 -16
-44 112 -39 135 5 130 3 153 79 l7 24 -71 -7 c-83 -7 -77 -20 -61 132 23 226
24 202 -7 201 -16 -1 -44 -5 -64 -11z"/>
<path d="M3110 1714 c-151 -65 -181 -283 -54 -381 31 -23 49 -28 108 -31 39
-2 83 1 99 7 24 10 27 15 27 61 0 49 0 49 -26 40 -44 -17 -109 -12 -129 10
-19 22 -31 95 -21 135 10 38 53 75 88 75 16 0 46 -9 68 -20 22 -11 42 -20 45
-20 3 0 5 25 5 56 0 53 -1 55 -35 70 -44 18 -130 17 -175 -2z"/>
<path d="M370 1240 c14 -4 186 -30 384 -56 333 -44 360 -49 385 -72 212 -198
449 -368 645 -464 l43 -20 84 48 c208 119 430 274 567 397 53 48 82 67 110 71
20 3 120 17 222 31 395 53 472 64 478 69 3 4 -177 6 -401 6 l-405 0 -30 -25
c-16 -13 -33 -21 -37 -17 -5 4 -5 2 -2 -5 18 -30 -320 -279 -540 -398 l-52
-28 -64 36 c-208 114 -447 293 -534 398 -10 12 74 14 602 11 408 -1 616 1 620
8 4 7 -199 10 -626 10 -347 0 -634 2 -637 5 -3 3 -192 5 -421 4 -236 0 -405
-4 -391 -9z"/>
</g>
</svg>
